<!DOCTYPE svg PUBLIC "-//W3C//DTD SVG 1.1//EN" "http://www.w3.org/Graphics/SVG/1.1/DTD/svg11.dtd">
<!-- Uploaded to: SVG Repo, www.svgrepo.com, Transformed by: SVG Repo Mixer Tools -->
<svg fill="#d2a584" width="800px" height="800px" viewBox="-2.4 -2.4 28.80 28.80" id="peanut" data-name="Line Color" xmlns="http://www.w3.org/2000/svg" class="icon line-color">
<g id="SVGRepo_bgCarrier" stroke-width="0">
<rect x="-2.4" y="-2.4" width="28.80" height="28.80" rx="14.4" fill="#f3e4dd" strokewidth="0"/>
</g>
<g id="SVGRepo_tracerCarrier" stroke-linecap="round" stroke-linejoin="round"/>
<g id="SVGRepo_iconCarrier">
<path id="primary" d="M16,7.33A4.18,4.18,0,0,0,12,3,4.18,4.18,0,0,0,8,7.33a11.42,11.42,0,0,0,.35,2.81,7.56,7.56,0,0,1,0,3.72A11.42,11.42,0,0,0,8,16.67,4.18,4.18,0,0,0,12,21a4.18,4.18,0,0,0,4-4.33,11.42,11.42,0,0,0-.35-2.81,7.56,7.56,0,0,1,0-3.72A11.42,11.42,0,0,0,16,7.33Z" style="fill: none; stroke: #d2a584; stroke-linecap: round; stroke-linejoin: round; stroke-width: 2;"/>
</g>
</svg>